<svg width="77" height="40" viewBox="0 0 77 40" fill="none" xmlns="http://www.w3.org/2000/svg">
<g clip-path="url(#clip0)">
<path d="M0.118321 23.6806H6.52092C6.54921 23.8474 6.56902 24.0198 6.61428 24.1866C6.68976 24.5118 6.84037 24.8149 7.05407 25.0716C7.26778 25.3283 7.53865 25.5315 7.84501 25.6649C8.36976 25.9226 8.94199 26.0696 9.52608 26.0968C10.1102 26.1241 10.6936 26.0309 11.2401 25.8231C11.4516 25.7551 11.6362 25.6219 11.7673 25.4427C11.8984 25.2635 11.9694 25.0474 11.9701 24.8254C11.9929 24.5917 11.9386 24.3569 11.8155 24.1569C11.6924 23.9569 11.5072 23.8025 11.2882 23.7174C10.6689 23.4576 10.035 23.2339 9.38978 23.0475C7.90725 22.6292 6.39926 22.2787 4.92805 21.8405C3.69833 21.5164 2.60659 20.8034 1.81587 19.8083C1.11614 18.886 0.685304 17.7885 0.571001 16.6369C0.423046 15.6426 0.535133 14.627 0.896365 13.6888C1.39835 12.498 2.29828 11.518 3.44269 10.916C4.79204 10.1817 6.28816 9.75682 7.82238 9.67231C9.21668 9.54375 10.6228 9.66241 11.9757 10.0228C14.1231 10.6305 15.8263 11.8007 16.7854 13.8895C17.1046 14.6022 17.2814 15.3703 17.306 16.1507H11.1835C11.1581 16.0546 11.1213 15.9444 11.0958 15.8342C11.0275 15.4847 10.8565 15.1636 10.6044 14.9118C10.3524 14.66 10.031 14.4891 9.68119 14.4209C8.9532 14.2194 8.17797 14.2743 7.48569 14.5763C7.27805 14.6534 7.09911 14.7923 6.9731 14.9743C6.8471 15.1563 6.78011 15.3726 6.78121 15.5939C6.76866 15.8216 6.82655 16.0476 6.94702 16.2413C7.06748 16.4349 7.24469 16.5869 7.45457 16.6765C7.91323 16.8761 8.38606 17.0414 8.8692 17.1711C10.3121 17.5725 11.7664 17.923 13.2036 18.3441C14.4382 18.6639 15.5781 19.2745 16.528 20.1248C17.293 20.8454 17.8151 21.7858 18.0218 22.8157C18.2895 23.8979 18.269 25.0312 17.9624 26.103C17.6341 27.1257 17.0063 28.0266 16.1602 28.6892C14.887 29.7238 13.4158 30.2438 11.8088 30.5067C10.1286 30.7954 8.40877 30.7609 6.7416 30.405C4.81771 29.981 3.10035 29.1556 1.76778 27.6632C0.806373 26.599 0.226162 25.2458 0.118321 23.8163C0.114694 23.7711 0.114694 23.7258 0.118321 23.6806V23.6806Z" fill="#27313D"/>
<path d="M52.6066 17.3154V10.0908H46.6171C46.7803 11.7545 47.4379 13.3314 48.5052 14.6188C49.5726 15.9062 51.0009 16.8453 52.6066 17.3154V17.3154Z" fill="#27313D"/>
<path d="M46.6115 30.2435H52.6066V22.9482C50.9895 23.4219 49.5526 24.3712 48.4832 25.6725C47.4139 26.9738 46.7616 28.5666 46.6115 30.2435V30.2435Z" fill="#27313D"/>
<path d="M44.0708 23.2935C43.2044 22.0751 42.1412 21.0091 40.9247 20.1391C42.1429 19.2679 43.2071 18.1999 44.0736 16.979C44.9393 18.1981 46.0026 19.2642 47.2198 20.1334C46.0016 21.0046 44.9373 22.0726 44.0708 23.2935V23.2935Z" fill="#0065C7"/>
<path d="M34.8446 22.7903C34.4767 23.2453 34.0218 23.6226 33.5064 23.9002C32.991 24.1778 32.4255 24.3501 31.8428 24.407C28.9173 24.6897 26.7331 22.7337 26.6228 20.0372C26.4955 17.6827 28.0374 15.4441 30.7676 15.1869C32.7255 15.0031 34.3947 15.8879 35.2605 17.3944C36.9272 16.9642 38.4211 16.032 39.5392 14.7243C40.6573 13.4167 41.3455 11.7969 41.5103 10.085H35.3991V11.9618C35.0205 11.5834 34.62 11.2276 34.1995 10.8962C33.0697 10.1201 31.7393 9.68717 30.3687 9.64968C29.1799 9.58016 27.9895 9.75416 26.8704 10.161C25.7514 10.5678 24.7274 11.1989 23.8614 12.0155C22.117 13.5938 20.9692 15.7236 20.6106 18.0473C20.3935 19.3269 20.4118 20.6353 20.6644 21.9084C20.9099 23.1603 21.3826 24.3568 22.0592 25.4387C22.7409 26.5488 23.6396 27.5101 24.7017 28.2653C26.3782 29.5037 28.4415 30.1049 30.5215 29.9612C31.5753 29.8989 32.6032 29.6097 33.5347 29.1132C34.2554 28.7621 34.8783 28.2388 35.3482 27.5897L35.4529 27.6152C35.4048 28.7458 35.4218 29.899 35.2888 31.0296C35.1558 32.1602 34.4655 33.0082 33.43 33.5367C32.538 33.9884 31.5262 34.1476 30.5385 33.9918C29.0163 33.7911 27.9327 33.0195 27.381 31.5638C27.3634 31.489 27.3179 31.4236 27.2538 31.3811C27.1897 31.3386 27.1117 31.3221 27.0359 31.3349C25.2336 31.3349 23.4342 31.3349 21.632 31.3349H21.3858C21.3858 32.4655 21.9715 34.1614 22.6986 35.1903C23.8897 36.8636 25.5279 37.9037 27.4376 38.5312C29.0721 39.0456 30.7963 39.2122 32.4991 39.0202C34.225 38.8535 35.8773 38.4549 37.3739 37.5193C39.1119 36.4356 40.3968 34.7582 40.9897 32.799C41.2786 31.8826 41.4461 30.9324 41.4877 29.9725C41.2722 28.2313 40.5152 26.6016 39.3234 25.313C38.1316 24.0245 36.565 23.1421 34.8446 22.7903V22.7903Z" fill="#27313D"/>
<path d="M52.6094 0H46.5237V6.07988H52.6094V0Z" fill="#27313D"/>
<path d="M70.8128 22.6123C70.6459 23.1659 70.3804 23.6849 70.0291 24.1443C69.6821 24.6174 69.2388 25.0116 68.7282 25.301C68.2175 25.5905 67.6513 25.7684 67.0669 25.8232C65.9464 25.9922 64.8036 25.7295 63.8698 25.0883C63.0151 24.4903 62.3934 23.6156 62.11 22.6123H56.1205C56.4675 24.2817 57.1988 25.8475 58.2566 27.1856C59.1643 28.3516 60.3355 29.2863 61.6743 29.9132C63.1619 30.6132 64.8252 30.8524 66.4501 30.6001C67.7719 30.4309 69.0106 29.8629 70.0008 28.972C70.2384 28.7572 70.4591 28.5226 70.7336 28.2512V30.2298H76.791V0H70.7166V12.0043C70.3133 11.6091 69.8852 11.2399 69.4349 10.8991C67.1348 9.38128 64.6592 9.2456 62.1524 10.2264C59.3685 11.3175 57.5945 13.4345 56.5675 16.1904C56.392 16.6627 56.2484 17.1462 56.1375 17.6376H71.4946C71.8216 17.6376 72.1453 17.7019 72.4474 17.8269C72.7495 17.9519 73.024 18.1351 73.2551 18.3661C73.4863 18.5971 73.6697 18.8713 73.7949 19.1731C73.92 19.4749 73.9844 19.7983 73.9844 20.1249C73.9844 20.4516 73.92 20.775 73.7949 21.0768C73.6697 21.3786 73.4863 21.6528 73.2551 21.8838C73.024 22.1147 72.7495 22.298 72.4474 22.423C72.1453 22.548 71.8216 22.6123 71.4946 22.6123" fill="#27313D"/>
</g>
<defs>
<clipPath id="clip0">
<rect width="76.6841" height="39.0938" fill="white" transform="translate(0.118286)"/>
</clipPath>
</defs>
</svg>
